<svg viewBox="0 0 460 331" xmlns="http://www.w3.org/2000/svg" xml:space="preserve" style="fill-rule:evenodd;clip-rule:evenodd;stroke-linejoin:round;stroke-miterlimit:2"><path d="M460 8v315c0 4.415-3.585 8-8 8H8c-4.415 0-8-3.585-8-8V8c0-4.415 3.585-8 8-8h444c4.415 0 8 3.585 8 8Z" style="fill:#1f1f1f"/><path style="fill:#0f0f0f;fill-rule:nonzero" d="M0 20h36.8v291H0z"/><path style="fill-rule:nonzero" d="M35.8 20h1v291h-1z"/><path d="M15.625 28h6.75l3.375 3.375v9.075l-.975 1.05H21.25v3.45L20.2 46h-9.075L10 44.95V33.625l1.125-1.125H14.5v-3.375L15.625 28Zm5.625 1.125V32.5h3.375v7.875h-9v-11.25h5.625Zm2.925 2.25-1.8-1.8v1.8h1.8Zm-9.675 2.25v6.825l1.125 1.05h4.5v3.375h-9v-11.25H14.5Z" style="fill:#ddd"/><path d="M25.816 70.251c0 2.787-2.259 5.046-5.046 5.046-2.862 0-5.121-2.259-5.121-5.046 0-2.862 2.259-5.121 5.121-5.121 2.787 0 5.046 2.259 5.046 5.121Zm1.13 0c0 3.389-2.787 6.176-6.176 6.176-1.506 0-2.787-.527-3.841-1.356L10.829 82 10 81.247l6.1-6.929c-.979-1.054-1.581-2.561-1.581-4.067 0-3.464 2.786-6.251 6.251-6.251 3.389 0 6.176 2.787 6.176 6.251Z" style="fill:#ddd;fill-opacity:.6"/><path d="M24.519 106.199c0-.523-.15-1.045-.374-1.494-.298-.448-.672-.821-1.195-1.045-.448-.224-.971-.374-1.494-.299-.522.075-.971.224-1.419.523-.373.299-.746.747-.896 1.195-.224.523-.299 1.045-.149 1.568.074.523.299.971.597 1.345.374.373.822.672 1.345.821-.225.374-.449.672-.822.897-.373.224-.747.373-1.195.373h-2.241c-.821 0-1.643.299-2.24.896v-5.452c.672-.149 1.269-.523 1.718-1.046.373-.597.597-1.269.522-1.942-.074-.746-.373-1.344-.896-1.792-.523-.523-1.195-.747-1.867-.747-.747 0-1.419.224-1.942.747-.523.448-.822 1.046-.896 1.792-.075.673.149 1.345.523 1.942.448.523 1.045.897 1.717 1.046v6.871c-.672.075-1.269.448-1.717 1.046-.449.523-.598 1.195-.598 1.942.075.672.373 1.27.896 1.792.448.449 1.121.747 1.793.822.672 0 1.344-.224 1.942-.598.523-.448.896-1.045.971-1.717.149-.747 0-1.419-.374-2.017-.298-.597-.896-1.046-1.568-1.195.224-.373.523-.672.821-.896.374-.224.747-.374 1.195-.374h2.241c.672 0 1.344-.224 1.942-.597.597-.448.971-1.046 1.195-1.643.672-.15 1.344-.448 1.793-.971.448-.523.672-1.121.672-1.793Zm-12.324-3.361c0-.373.075-.672.299-.971.149-.299.448-.523.747-.597.298-.15.672-.15.971-.15.298.075.597.224.821.523.299.224.448.523.523.822 0 .298 0 .672-.149.971-.075.298-.299.597-.598.747-.299.224-.597.298-.896.298-.448 0-.896-.149-1.195-.522-.374-.299-.523-.747-.523-1.121Zm3.361 12.324c0 .299-.075.597-.299.896-.149.299-.448.523-.747.598-.298.149-.672.149-.971.149-.298-.075-.597-.224-.821-.523-.299-.224-.448-.523-.523-.821 0-.299 0-.673.149-.971.075-.299.299-.598.598-.747.299-.224.597-.299.971-.299.373 0 .821.149 1.12.523.374.299.523.747.523 1.195Zm6.199-7.32c-.373 0-.672-.074-.971-.298-.299-.15-.523-.449-.597-.747-.15-.299-.15-.673-.15-.971.075-.299.224-.598.523-.822.224-.299.523-.448.822-.523.298 0 .672 0 .971.15.298.074.597.298.747.597.224.299.298.598.298.971 0 .374-.149.822-.522 1.121-.299.373-.747.522-1.121.522ZM17.175 146.125l-.975.975c-.15-.6-.45-1.125-.975-1.5-.525-.375-1.125-.6-1.725-.6-.6 0-1.2.225-1.725.6-.525.375-.825.9-.975 1.5l-.975-.975-.825.825 1.275 1.275-.15.15v1.125H9v1.125h1.125v.075c.075.375.15.675.3 1.05L9 153.175l.825.825 1.2-1.2c.3.375.675.675 1.125.825.375.225.9.375 1.35.375.45 0 .975-.15 1.35-.375.45-.15.825-.45 1.125-.825l1.2 1.2.825-.825-1.425-1.425c.15-.375.225-.75.3-1.05v-.075H18V149.5h-1.125v-1.125l-.15-.15L18 146.95l-.825-.825Zm-3.675 0c.45 0 .9.15 1.2.525.3.3.525.75.525 1.2H11.85c0-.45.15-.9.45-1.2.3-.375.75-.525 1.2-.525Zm2.25 4.5c-.075.6-.3 1.125-.75 1.5-.375.45-.9.675-1.5.75-.6-.075-1.125-.3-1.5-.75-.45-.375-.675-.9-.75-1.5v-1.65h4.5v1.65Zm11.1-7.425v.975l-7.725 4.875v-1.35l6.375-4.05-9.75-6.15v7.125c-.375-.3-.75-.45-1.125-.6v-7.575l.825-.45 11.4 7.2ZM19.125 173.125 20.25 172h5.625L27 173.125v5.625l-1.125 1.125H20.25l-1.125-1.125v-5.625Zm1.125 0v5.625h5.625v-5.625H20.25ZM9 188.875V176.5l1.125-1.125h5.625l1.125 1.125v5.625H22.5l1.125 1.125v5.625L22.5 190H10.125L9 188.875Zm6.75-6.75V176.5h-5.625v5.625h5.625Zm0 1.125h-5.625v5.625h5.625v-5.625Zm1.125 5.625H22.5v-5.625h-5.625v5.625Z" style="fill:#ddd;fill-opacity:.6;fill-rule:nonzero"/><path style="fill:#1f1f1f" d="M36.8 20H460v28H36.8z"/><path style="fill:#1f1f1f" d="M0 0h116v28H0z" transform="translate(36.8 20)"/><text x="-17.003" style="font-family:'SegoeUI','Segoe UI';font-size:11px;fill:#ddd" transform="translate(94.5852 36.7258)">ma<tspan x="-1.822 .897 7.177 9.617 12.336" y="0 0 0 0 0">in.js</tspan></text><path style="fill:#161616" d="M36.8 47H460v1H36.8z"/><path d="M0 311h460v12c0 4.418-3.582 8-8 8H8c-4.418 0-8-3.582-8-8v-12Z" style="fill:#161616;fill-rule:nonzero"/><path style="fill-rule:nonzero" d="M0 311h460v1H0z"/><path d="M14.425 316.011c1.139.071 2.206.64 2.99 1.423.925.997 1.423 2.207 1.423 3.631 0 1.139-.427 2.207-1.139 3.132-.712.854-1.708 1.495-2.847 1.709-1.139.213-2.278.071-3.275-.499-.996-.569-1.78-1.423-2.207-2.491-.427-1.068-.498-2.278-.142-3.346.356-1.139.997-2.064 1.993-2.705.926-.641 2.065-.926 3.204-.854Zm.356 9.183c.925-.214 1.779-.712 2.42-1.495.569-.783.925-1.709.854-2.705 0-1.139-.427-2.278-1.21-3.061-.712-.712-1.566-1.139-2.563-1.21-.925-.072-1.922.142-2.705.711-.783.57-1.352 1.353-1.637 2.35-.285.925-.285 1.922.142 2.847.427.926 1.068 1.637 1.922 2.136.855.498 1.851.64 2.777.427Zm-.855-4.556 1.709-1.78.498.498-1.708 1.78 1.708 1.78-.498.498-1.709-1.78-1.708 1.78-.498-.498 1.708-1.78-1.708-1.78.498-.498 1.708 1.78Z" style="fill:#ddd"/><text style="font-family:'SegoeUI','Segoe UI';font-size:10px;fill:#ddd" transform="translate(46.1748 325)">0</text><path d="M37.046 316h.677l5.031 9.431-.339.569H32.339l-.339-.569L37.046 316Zm.339.985-4.4 8.246h8.784l-4.384-8.246Zm.48 7.477v-.77h-.961v.77h.961Zm-.961-1.539v-3.077h.961v3.077h-.961Z" style="fill:#ddd"/><text style="font-family:'SegoeUI','Segoe UI';font-size:10px;fill:#ddd" transform="translate(21.9787 325)">0</text><text x="-44.083" style="font-family:'SegoeUI','Segoe UI';font-size:10px;fill:#ddd" transform="translate(451.95 324)">Ja<tspan x="-35.326 -30.486 -25.348 -19.985 -15.316 -11.789 -9.318" y="0 0 0 0 0 0 0">vaScrip</tspan>t</text><path d="M0 8c0-4.418 3.582-8 8-8h444c4.418 0 8 3.582 8 8v12H0V8Z" style="fill:#161616;fill-rule:nonzero"/><path style="fill-rule:nonzero" d="M0 19h460v1H0z"/><path style="fill:#1f1f1f" d="M36.8 47h116v1h-116z"/><text style="font-family:'Consolas-Italic','Consolas';font-style:italic;font-size:12.5px;fill:#3bc0f0" transform="translate(50 70.5)">cons<tspan x="27.59" y="0">t</tspan></text><text x="41.385" style="font-family:'Consolas';font-size:12.5px;fill:#f8f8f2" transform="translate(50 70.5)">btn</text><text x="68.976" style="font-family:'Consolas';font-size:12.5px;fill:#f92672" transform="translate(50 70.5)">=</text><text x="82.771" style="font-family:'Consolas';font-size:12.5px;fill:#f8f8f2" transform="translate(50 70.5)">docu<tspan x="110.361" y="0">m</tspan>ent</text><text x="137.951" style="font-family:'Consolas';font-size:12.5px;fill:#f3f3f3" transform="translate(50 70.5)">.</text><text x="144.849" style="font-family:'Consolas';font-size:12.5px;fill:#0fd589" transform="translate(50 70.5)">getE<tspan x="172.439" y="0">l</tspan>eme<tspan x="200.029" y="0">n</tspan>tBy<tspan x="227.619" y="0">I</tspan>d</text><text x="241.415" style="font-family:'Consolas';font-size:12.5px;fill:#f3f3f3" transform="translate(50 70.5)">(</text><text x="248.312" style="font-family:'Consolas';font-size:12.5px;fill:#fe9" transform="translate(50 70.5)">&apos;btn&apos;</text><text x="282.8" style="font-family:'Consolas';font-size:12.5px;fill:#f3f3f3" transform="translate(50 70.5)">);</text><text style="font-family:'Consolas-Italic','Consolas';font-style:italic;font-size:12.5px;fill:#3bc0f0" transform="translate(50 87.5)">let</text><text x="27.59" style="font-family:'Consolas';font-size:12.5px;fill:#f8f8f2" transform="translate(50 87.5)">count</text><text x="68.976" style="font-family:'Consolas';font-size:12.5px;fill:#f92672" transform="translate(50 87.5)">=</text><text x="82.771" style="font-family:'Consolas';font-size:12.5px;fill:#ae81ff" transform="translate(50 87.5)">0</text><text x="89.668" style="font-family:'Consolas';font-size:12.5px;fill:#f3f3f3" transform="translate(50 87.5)">;</text><text style="font-family:'Consolas-Italic','Consolas';font-style:italic;font-size:12.5px;fill:#3bc0f0" transform="translate(50 121.5)">func<tspan x="27.59" y="0">t</tspan>ion</text><text x="62.078" style="font-family:'Consolas';font-size:12.5px;fill:#0fd589" transform="translate(50 121.5)">rend<tspan x="89.668" y="0">e</tspan>r</text><text x="103.463" style="font-family:'Consolas';font-size:12.5px;fill:#f3f3f3" transform="translate(50 121.5)">() {</text><text x="13.795" style="font-family:'Consolas';font-size:12.5px;fill:#f8f8f2" transform="translate(50 138.5)">btn</text><text x="34.488" style="font-family:'Consolas';font-size:12.5px;fill:#f3f3f3" transform="translate(50 138.5)">.</text><text x="41.385" style="font-family:'Consolas';font-size:12.5px;fill:#f8f8f2" transform="translate(50 138.5)">inner<tspan x="75.873" y="0">T</tspan>ext</text><text x="110.361" style="font-family:'Consolas';font-size:12.5px;fill:#f92672" transform="translate(50 138.5)">=</text><text x="124.156" style="font-family:'Consolas';font-size:12.5px;fill:#fe9" transform="translate(50 138.5)">`Cou<tspan x="151.746" y="0">n</tspan>t:</text><text x="179.337" style="font-family:'Consolas';font-size:12.5px;fill:#f92672" transform="translate(50 138.5)">${</text><text x="193.132" style="font-family:'Consolas';font-size:12.5px;fill:#f8f8f2" transform="translate(50 138.5)">coun<tspan x="220.722" y="0">t</tspan></text><text x="227.619" style="font-family:'Consolas';font-size:12.5px;fill:#f92672" transform="translate(50 138.5)">}</text><text x="234.517" style="font-family:'Consolas';font-size:12.5px;fill:#fe9" transform="translate(50 138.5)">`</text><text x="241.415" style="font-family:'Consolas';font-size:12.5px;fill:#f3f3f3" transform="translate(50 138.5)">;</text><text style="font-family:'Consolas';font-size:12.5px;fill:#f3f3f3" transform="translate(50 155.5)">}</text><text style="font-family:'Consolas';font-size:12.5px;fill:#f8f8f2" transform="translate(50 189.5)">btn</text><text x="20.693" style="font-family:'Consolas';font-size:12.5px;fill:#f3f3f3" transform="translate(50 189.5)">.</text><text x="27.59" style="font-family:'Consolas';font-size:12.5px;fill:#0fd589" transform="translate(50 189.5)">addEv<tspan x="62.078" y="0">e</tspan>ntL<tspan x="89.668" y="0">i</tspan>ste<tspan x="117.258" y="0">n</tspan>er</text><text x="137.951" style="font-family:'Consolas';font-size:12.5px;fill:#f3f3f3" transform="translate(50 189.5)">(</text><text x="144.849" style="font-family:'Consolas';font-size:12.5px;fill:#fe9" transform="translate(50 189.5)">&apos;cli<tspan x="172.439" y="0">c</tspan>k&apos;</text><text x="193.132" style="font-family:'Consolas';font-size:12.5px;fill:#f3f3f3" transform="translate(50 189.5)">, ()</text><text x="227.619" style="font-family:'Consolas-Italic','Consolas';font-style:italic;font-size:12.5px;fill:#3bc0f0" transform="translate(50 189.5)">=&gt;</text><text x="248.312" style="font-family:'Consolas';font-size:12.5px;fill:#f3f3f3" transform="translate(50 189.5)">{</text><text x="13.795" style="font-family:'Consolas-Italic','Consolas';font-style:italic;font-size:12.5px;fill:#464741" transform="translate(50 206.5)">// C<tspan x="41.385" y="0">o</tspan>unt <tspan x="75.873" y="0">f</tspan>rom<tspan x="103.463" y="0"> </tspan>1 t<tspan x="131.054" y="0">o</tspan> 10<tspan x="158.644" y="0">.</tspan></text><text x="13.795" style="font-family:'Consolas-Italic','Consolas';font-style:italic;font-size:12.5px;fill:#f92672" transform="translate(50 223.5)">if</text><text x="34.488" style="font-family:'Consolas';font-size:12.5px;fill:#f3f3f3" transform="translate(50 223.5)">(</text><text x="41.385" style="font-family:'Consolas';font-size:12.5px;fill:#f8f8f2" transform="translate(50 223.5)">count</text><text x="82.771" style="font-family:'Consolas';font-size:12.5px;fill:#f92672" transform="translate(50 223.5)">&lt;</text><text x="96.566" style="font-family:'Consolas';font-size:12.5px;fill:#ae81ff" transform="translate(50 223.5)">10</text><text x="110.361" style="font-family:'Consolas';font-size:12.5px;fill:#f3f3f3" transform="translate(50 223.5)">) {</text><text x="27.59" style="font-family:'Consolas';font-size:12.5px;fill:#f8f8f2" transform="translate(50 240.5)">count</text><text x="68.976" style="font-family:'Consolas';font-size:12.5px;fill:#f92672" transform="translate(50 240.5)">+=</text><text x="89.668" style="font-family:'Consolas';font-size:12.5px;fill:#ae81ff" transform="translate(50 240.5)">1</text><text x="96.566" style="font-family:'Consolas';font-size:12.5px;fill:#f3f3f3" transform="translate(50 240.5)">;</text><text x="27.59" style="font-family:'Consolas';font-size:12.5px;fill:#0fd589" transform="translate(50 257.5)">rende<tspan x="62.078" y="0">r</tspan></text><text x="68.976" style="font-family:'Consolas';font-size:12.5px;fill:#f3f3f3" transform="translate(50 257.5)">();</text><text x="13.795" style="font-family:'Consolas';font-size:12.5px;fill:#f3f3f3" transform="translate(50 274.5)">}</text><text style="font-family:'Consolas';font-size:12.5px;fill:#f3f3f3" transform="translate(50 291.5)">});</text></svg>